<svg xmlns="http://www.w3.org/2000/svg" xmlns:v="https://svgstorm.com"
viewBox = "0 0 21 20"
width="21"
height="20">
<g fill="None" fill-opacity="0.0" stroke="#000000" stroke-opacity="0.00" stroke-width="0.3"><path d="
M 0.00 5.00 
C 0.50 5.00 1.00 5.00 1.00 5.00
C 1.96 3.03 4.16 1.97 5.00 0.00
L 0.00 0.00
L 0.00 5.00 Z"/>
</g>
<g fill="None" fill-opacity="0.0" stroke="#FF5555" stroke-opacity="0.55" stroke-width="0.3"><path d="
M 1.00 5.00 
C 0.80 5.40 1.00 6.00 1.00 6.00
C 1.22 6.31 2.40 6.78 1.00 7.00
C 0.75 7.25 0.00 7.00 0.00 7.00
L 0.00 15.00
C 1.81 16.66 3.51 18.03 5.00 20.00
L 16.00 20.00
C 17.66 18.19 19.03 16.49 21.00 15.00
L 21.00 5.00
C 19.32 3.50 17.41 2.22 17.00 0.00
L 12.00 0.00
C 11.78 1.28 9.19 1.42 9.00 0.00
L 5.00 0.00
C 4.16 1.97 1.96 3.03 1.00 5.00
M 15.00 1.00 
C 15.74 1.74 14.18 0.18 15.00 1.00
M 11.00 12.00 
C 11.41 12.41 11.90 13.43 12.00 14.00
C 12.25 13.75 13.00 14.00 13.00 14.00
C 14.74 11.53 16.52 9.00 17.00 6.00
C 23.53 12.87 10.84 22.77 4.31 15.69 C -2.23 8.62 8.03 -1.76 16.00 3.00
C 14.88 6.33 11.61 8.56 11.00 12.00
M 17.00 4.00 
C 17.74 4.74 16.18 3.18 17.00 4.00
M 15.00 7.00 
C 15.74 7.74 14.18 6.18 15.00 7.00
M 15.00 9.00 
C 15.74 9.74 14.18 8.18 15.00 9.00 Z"/>
</g>
<g fill="None" fill-opacity="0.0" stroke="#FE5656" stroke-opacity="0.97" stroke-width="0.3"><path d="
M 12.00 0.00 
L 9.00 0.00
C 9.19 1.42 11.78 1.28 12.00 0.00 Z"/>
</g>
<g fill="None" fill-opacity="0.0" stroke="#000000" stroke-opacity="0.00" stroke-width="0.3"><path d="
M 21.00 5.00 
L 21.00 0.00
L 17.00 0.00
C 17.41 2.22 19.32 3.50 21.00 5.00 Z"/>
</g>
<g fill="None" fill-opacity="0.0" stroke="#FE5656" stroke-opacity="1.00" stroke-width="0.3"><path d="
M 15.00 1.00 
C 14.18 0.18 15.74 1.74 15.00 1.00 Z"/>
</g>
<g fill="None" fill-opacity="0.0" stroke="#000000" stroke-opacity="0.00" stroke-width="0.3"><path d="
M 13.00 14.00 
C 12.79 14.30 12.19 14.73 12.00 15.00
C 11.25 16.08 10.66 17.38 9.00 17.00
C 8.78 13.56 4.41 11.73 5.00 8.00
C 7.35 7.24 8.27 9.25 9.00 11.00
C 9.42 11.51 10.60 11.60 11.00 12.00
C 11.61 8.56 14.88 6.33 16.00 3.00
C 8.03 -1.76 -2.23 8.62 4.31 15.69 C 10.84 22.77 23.53 12.87 17.00 6.00
C 16.52 9.00 14.74 11.53 13.00 14.00 Z"/>
</g>
<g fill="None" fill-opacity="0.0" stroke="#FE5656" stroke-opacity="0.87" stroke-width="0.3"><path d="
M 17.00 4.00 
C 16.18 3.18 17.74 4.74 17.00 4.00 Z"/>
</g>
<g fill="None" fill-opacity="0.0" stroke="#FE4D4D" stroke-opacity="0.04" stroke-width="0.3"><path d="
M 0.00 6.00 
C 0.50 6.00 1.00 6.00 1.00 6.00
C 1.00 6.00 0.80 5.40 1.00 5.00
C 1.00 5.00 0.50 5.00 0.00 5.00
L 0.00 6.00 Z"/>
</g>
<g fill="None" fill-opacity="0.0" stroke="#FE5555" stroke-opacity="0.31" stroke-width="0.3"><path d="
M 0.00 7.00 
C 0.00 7.00 0.75 7.25 1.00 7.00
C 1.25 6.75 1.00 6.00 1.00 6.00
C 1.00 6.00 0.50 6.00 0.00 6.00
L 0.00 7.00 Z"/>
</g>
<g fill="None" fill-opacity="0.0" stroke="#FE5656" stroke-opacity="1.00" stroke-width="0.3"><path d="
M 1.00 7.00 
C 2.40 6.78 1.22 6.31 1.00 6.00
C 1.00 6.00 1.25 6.75 1.00 7.00 Z"/>
</g>
<g fill="None" fill-opacity="0.0" stroke="#FE5656" stroke-opacity="0.79" stroke-width="0.3"><path d="
M 15.00 7.00 
C 14.18 6.18 15.74 7.74 15.00 7.00 Z"/>
</g>
<g fill="None" fill-opacity="0.0" stroke="#FF5757" stroke-opacity="0.42" stroke-width="0.3"><path d="
M 12.00 15.00 
C 8.01 14.67 9.89 12.48 9.00 11.00
C 8.27 9.25 7.35 7.24 5.00 8.00
C 4.41 11.73 8.78 13.56 9.00 17.00
C 10.66 17.38 11.25 16.08 12.00 15.00 Z"/>
</g>
<g fill="None" fill-opacity="0.0" stroke="#FE5555" stroke-opacity="0.81" stroke-width="0.3"><path d="
M 15.00 9.00 
C 14.18 8.18 15.74 9.74 15.00 9.00 Z"/>
</g>
<g fill="None" fill-opacity="0.0" stroke="#FE5555" stroke-opacity="0.74" stroke-width="0.3"><path d="
M 12.00 15.00 
C 11.77 14.64 12.00 14.00 12.00 14.00
C 11.90 13.43 11.41 12.41 11.00 12.00
C 10.60 11.60 9.42 11.51 9.00 11.00
C 9.89 12.48 8.01 14.67 12.00 15.00 Z"/>
</g>
<g fill="None" fill-opacity="0.0" stroke="#FE5555" stroke-opacity="0.02" stroke-width="0.3"><path d="
M 12.00 15.00 
C 12.19 14.73 12.79 14.30 13.00 14.00
C 13.00 14.00 12.25 13.75 12.00 14.00
C 12.00 14.00 11.77 14.64 12.00 15.00 Z"/>
</g>
<g fill="None" fill-opacity="0.0" stroke="#000000" stroke-opacity="0.00" stroke-width="0.3"><path d="
M 0.00 20.00 
L 5.00 20.00
C 3.51 18.03 1.81 16.66 0.00 15.00
L 0.00 20.00 Z"/>
</g>
<g fill="None" fill-opacity="0.0" stroke="#000000" stroke-opacity="0.00" stroke-width="0.3"><path d="
M 16.00 20.00 
L 21.00 20.00
L 21.00 15.00
C 19.03 16.49 17.66 18.19 16.00 20.00 Z"/>
</g>
<g fill="#000000" fill-opacity="0.00" stroke="None">
<path d="
M 0.00 5.00 
C 0.50 5.00 1.00 5.00 1.00 5.00
C 1.96 3.03 4.16 1.97 5.00 0.00
L 0.00 0.00
L 0.00 5.00 Z"/>
</g>
<g fill="#FF5555" fill-opacity="0.55" stroke="None">
<path d="
M 1.00 5.00 
C 0.80 5.40 1.00 6.00 1.00 6.00
C 1.22 6.31 2.40 6.78 1.00 7.00
C 0.75 7.25 0.00 7.00 0.00 7.00
L 0.00 15.00
C 1.81 16.66 3.51 18.03 5.00 20.00
L 16.00 20.00
C 17.66 18.19 19.03 16.49 21.00 15.00
L 21.00 5.00
C 19.32 3.50 17.41 2.22 17.00 0.00
L 12.00 0.00
C 11.78 1.28 9.19 1.42 9.00 0.00
L 5.00 0.00
C 4.16 1.97 1.96 3.03 1.00 5.00
M 15.00 1.00 
C 15.74 1.74 14.18 0.18 15.00 1.00
M 11.00 12.00 
C 11.41 12.41 11.90 13.43 12.00 14.00
C 12.25 13.75 13.00 14.00 13.00 14.00
C 14.74 11.53 16.52 9.00 17.00 6.00
C 23.53 12.87 10.84 22.77 4.31 15.69 C -2.23 8.62 8.03 -1.76 16.00 3.00
C 14.88 6.33 11.61 8.56 11.00 12.00
M 17.00 4.00 
C 17.74 4.74 16.18 3.18 17.00 4.00
M 15.00 7.00 
C 15.74 7.74 14.18 6.18 15.00 7.00
M 15.00 9.00 
C 15.74 9.74 14.18 8.18 15.00 9.00 Z"/>
</g>
<g fill="#FE5656" fill-opacity="0.97" stroke="None">
<path d="
M 12.00 0.00 
L 9.00 0.00
C 9.19 1.42 11.78 1.28 12.00 0.00 Z"/>
</g>
<g fill="#000000" fill-opacity="0.00" stroke="None">
<path d="
M 21.00 5.00 
L 21.00 0.00
L 17.00 0.00
C 17.41 2.22 19.32 3.50 21.00 5.00 Z"/>
</g>
<g fill="#FE5656" fill-opacity="1.00" stroke="None">
<path d="
M 15.00 1.00 
C 14.18 0.18 15.74 1.74 15.00 1.00 Z"/>
</g>
<g fill="#000000" fill-opacity="0.00" stroke="None">
<path d="
M 13.00 14.00 
C 12.79 14.30 12.19 14.73 12.00 15.00
C 11.25 16.08 10.66 17.38 9.00 17.00
C 8.78 13.56 4.41 11.73 5.00 8.00
C 7.35 7.24 8.27 9.25 9.00 11.00
C 9.42 11.51 10.60 11.60 11.00 12.00
C 11.61 8.56 14.88 6.33 16.00 3.00
C 8.03 -1.76 -2.23 8.62 4.31 15.69 C 10.84 22.77 23.53 12.87 17.00 6.00
C 16.52 9.00 14.74 11.53 13.00 14.00 Z"/>
</g>
<g fill="#FE5656" fill-opacity="0.87" stroke="None">
<path d="
M 17.00 4.00 
C 16.18 3.18 17.74 4.74 17.00 4.00 Z"/>
</g>
<g fill="#FE4D4D" fill-opacity="0.04" stroke="None">
<path d="
M 0.00 6.00 
C 0.50 6.00 1.00 6.00 1.00 6.00
C 1.00 6.00 0.80 5.40 1.00 5.00
C 1.00 5.00 0.50 5.00 0.00 5.00
L 0.00 6.00 Z"/>
</g>
<g fill="#FE5555" fill-opacity="0.31" stroke="None">
<path d="
M 0.00 7.00 
C 0.00 7.00 0.75 7.25 1.00 7.00
C 1.25 6.75 1.00 6.00 1.00 6.00
C 1.00 6.00 0.50 6.00 0.00 6.00
L 0.00 7.00 Z"/>
</g>
<g fill="#FE5656" fill-opacity="1.00" stroke="None">
<path d="
M 1.00 7.00 
C 2.40 6.78 1.22 6.31 1.00 6.00
C 1.00 6.00 1.25 6.75 1.00 7.00 Z"/>
</g>
<g fill="#FE5656" fill-opacity="0.79" stroke="None">
<path d="
M 15.00 7.00 
C 14.18 6.18 15.74 7.74 15.00 7.00 Z"/>
</g>
<g fill="#FF5757" fill-opacity="0.42" stroke="None">
<path d="
M 12.00 15.00 
C 8.01 14.67 9.89 12.48 9.00 11.00
C 8.27 9.25 7.35 7.24 5.00 8.00
C 4.41 11.73 8.78 13.56 9.00 17.00
C 10.66 17.38 11.25 16.08 12.00 15.00 Z"/>
</g>
<g fill="#FE5555" fill-opacity="0.81" stroke="None">
<path d="
M 15.00 9.00 
C 14.18 8.18 15.74 9.74 15.00 9.00 Z"/>
</g>
<g fill="#FE5555" fill-opacity="0.74" stroke="None">
<path d="
M 12.00 15.00 
C 11.77 14.64 12.00 14.00 12.00 14.00
C 11.90 13.43 11.41 12.41 11.00 12.00
C 10.60 11.60 9.42 11.51 9.00 11.00
C 9.89 12.48 8.01 14.67 12.00 15.00 Z"/>
</g>
<g fill="#FE5555" fill-opacity="0.02" stroke="None">
<path d="
M 12.00 15.00 
C 12.19 14.73 12.79 14.30 13.00 14.00
C 13.00 14.00 12.25 13.75 12.00 14.00
C 12.00 14.00 11.77 14.64 12.00 15.00 Z"/>
</g>
<g fill="#000000" fill-opacity="0.00" stroke="None">
<path d="
M 0.00 20.00 
L 5.00 20.00
C 3.51 18.03 1.81 16.66 0.00 15.00
L 0.00 20.00 Z"/>
</g>
<g fill="#000000" fill-opacity="0.00" stroke="None">
<path d="
M 16.00 20.00 
L 21.00 20.00
L 21.00 15.00
C 19.03 16.49 17.66 18.19 16.00 20.00 Z"/>
</g>
</svg>