<svg xmlns="http://www.w3.org/2000/svg" xmlns:v="https://svgstorm.com"
viewBox = "0 0 21 20"
width="21"
height="20">
<g fill="None" fill-opacity="0.0" stroke="#000000" stroke-opacity="0.00" stroke-width="0.3"><path d="
M 0.00 5.00 
C 1.93 3.74 3.91 2.00 5.00 0.00
L 0.00 0.00
L 0.00 5.00 Z"/>
</g>
<g fill="None" fill-opacity="0.0" stroke="#1CA8C2" stroke-opacity="0.56" stroke-width="0.3"><path d="
M 0.00 5.00 
L 0.00 7.00
C 1.20 6.15 1.14 6.20 2.00 7.00
C 2.25 6.75 3.00 7.00 3.00 7.00
C 3.40 6.37 3.63 5.60 4.00 5.00
C 4.20 4.69 4.70 4.21 5.00 4.00
C 8.56 1.55 12.04 1.99 16.00 3.00
C 14.88 6.33 11.61 8.56 11.00 12.00
C 8.22 11.19 8.42 7.05 5.00 8.00
C 4.24 10.19 6.30 11.32 7.00 13.00
C 7.28 13.24 7.88 13.65 8.00 14.00
C 8.36 15.01 9.33 15.76 9.00 17.00
C 14.19 15.99 14.78 9.09 18.00 6.00
C 19.49 4.85 18.16 7.96 18.00 7.00
C 20.44 10.80 17.57 15.46 14.00 17.00
C 13.73 17.15 13.35 17.94 13.00 18.00
C 8.93 19.05 4.49 16.45 3.00 13.00
C 2.93 12.82 2.00 13.00 2.00 13.00
C 1.90 14.09 0.72 13.81 0.00 14.00
L 0.00 15.00
C 1.81 16.66 3.51 18.03 5.00 20.00
L 16.00 20.00
C 17.66 18.19 19.03 16.49 21.00 15.00
L 21.00 6.00
C 20.67 5.84 20.15 5.34 20.00 5.00
C 19.12 3.02 18.97 2.65 17.00 2.00
C 16.20 3.81 15.57 0.63 15.00 0.00
L 5.00 0.00
C 3.91 2.00 1.93 3.74 0.00 5.00
M 17.00 4.00 
C 17.74 4.74 16.18 3.18 17.00 4.00
M 15.00 9.00 
C 15.74 9.74 14.18 8.18 15.00 9.00
M 5.00 17.00 
C 5.74 17.74 4.18 16.18 5.00 17.00 Z"/>
</g>
<g fill="None" fill-opacity="0.0" stroke="#1AAAC4" stroke-opacity="0.05" stroke-width="0.3"><path d="
M 17.00 2.00 
C 16.85 1.95 17.00 1.00 17.00 1.00
C 16.88 0.74 16.17 0.34 16.00 0.00
L 15.00 0.00
C 15.57 0.63 16.20 3.81 17.00 2.00 Z"/>
</g>
<g fill="None" fill-opacity="0.0" stroke="#00FFFF" stroke-opacity="0.00" stroke-width="0.3"><path d="
M 17.00 1.00 
C 17.00 0.50 17.00 0.00 17.00 0.00
L 16.00 0.00
C 16.17 0.34 16.88 0.74 17.00 1.00 Z"/>
</g>
<g fill="None" fill-opacity="0.0" stroke="#000000" stroke-opacity="0.00" stroke-width="0.3"><path d="
M 17.00 1.00 
C 17.00 1.00 16.85 1.95 17.00 2.00
C 18.97 2.65 19.12 3.02 20.00 5.00
C 20.07 5.18 21.00 5.00 21.00 5.00
L 21.00 0.00
L 17.00 0.00
C 17.00 0.00 17.00 0.50 17.00 1.00 Z"/>
</g>
<g fill="None" fill-opacity="0.0" stroke="#000000" stroke-opacity="0.00" stroke-width="0.3"><path d="
M 5.00 4.00 
C 4.74 4.23 4.35 4.87 4.00 5.00
C 3.63 5.60 3.40 6.37 3.00 7.00
C 2.80 7.31 2.13 7.73 2.00 8.00
C 2.00 9.33 2.00 10.67 2.00 12.00
C 2.13 12.27 2.85 12.66 3.00 13.00
C 4.49 16.45 8.93 19.05 13.00 18.00
C 12.92 17.92 13.66 17.15 14.00 17.00
C 17.57 15.46 20.44 10.80 18.00 7.00
C 17.77 6.65 18.00 6.00 18.00 6.00
C 14.78 9.09 14.19 15.99 9.00 17.00
C 9.33 15.76 8.36 15.01 8.00 14.00
C 7.88 13.74 7.25 13.26 7.00 13.00
C 6.30 11.32 4.24 10.19 5.00 8.00
C 8.42 7.05 8.22 11.19 11.00 12.00
C 11.61 8.56 14.88 6.33 16.00 3.00
C 12.04 1.99 8.56 1.55 5.00 4.00 Z"/>
</g>
<g fill="None" fill-opacity="0.0" stroke="#00FFFF" stroke-opacity="0.00" stroke-width="0.3"><path d="
M 4.00 5.00 
C 4.35 4.87 4.74 4.23 5.00 4.00
C 4.70 4.21 4.20 4.69 4.00 5.00 Z"/>
</g>
<g fill="None" fill-opacity="0.0" stroke="#1CA8C3" stroke-opacity="0.87" stroke-width="0.3"><path d="
M 17.00 4.00 
C 16.18 3.18 17.74 4.74 17.00 4.00 Z"/>
</g>
<g fill="None" fill-opacity="0.0" stroke="#18AAC2" stroke-opacity="0.08" stroke-width="0.3"><path d="
M 21.00 6.00 
L 21.00 5.00
C 21.00 5.00 20.07 5.18 20.00 5.00
C 20.15 5.34 20.67 5.84 21.00 6.00 Z"/>
</g>
<g fill="None" fill-opacity="0.0" stroke="#1BA8C2" stroke-opacity="0.77" stroke-width="0.3"><path d="
M 0.00 7.00 
L 0.00 14.00
C 0.72 13.81 1.90 14.09 2.00 13.00
C 1.75 12.75 2.00 12.00 2.00 12.00
C 2.00 10.67 2.00 9.33 2.00 8.00
C 2.00 7.50 2.00 7.00 2.00 7.00
C 1.14 6.20 1.20 6.15 0.00 7.00 Z"/>
</g>
<g fill="None" fill-opacity="0.0" stroke="#1AA9C3" stroke-opacity="0.27" stroke-width="0.3"><path d="
M 18.00 7.00 
C 18.16 7.96 19.49 4.85 18.00 6.00
C 18.00 6.00 17.77 6.65 18.00 7.00 Z"/>
</g>
<g fill="None" fill-opacity="0.0" stroke="#1CAAC6" stroke-opacity="0.07" stroke-width="0.3"><path d="
M 2.00 8.00 
C 2.13 7.73 2.80 7.31 3.00 7.00
C 3.00 7.00 2.25 6.75 2.00 7.00
C 2.00 7.00 2.00 7.50 2.00 8.00 Z"/>
</g>
<g fill="None" fill-opacity="0.0" stroke="#1CA8C4" stroke-opacity="0.81" stroke-width="0.3"><path d="
M 15.00 9.00 
C 14.18 8.18 15.74 9.74 15.00 9.00 Z"/>
</g>
<g fill="None" fill-opacity="0.0" stroke="#20AFBF" stroke-opacity="0.06" stroke-width="0.3"><path d="
M 2.00 13.00 
C 2.00 13.00 2.93 12.82 3.00 13.00
C 2.85 12.66 2.13 12.27 2.00 12.00
C 2.00 12.00 1.75 12.75 2.00 13.00 Z"/>
</g>
<g fill="None" fill-opacity="0.0" stroke="#0080FF" stroke-opacity="0.01" stroke-width="0.3"><path d="
M 8.00 14.00 
C 7.88 13.65 7.28 13.24 7.00 13.00
C 7.25 13.26 7.88 13.74 8.00 14.00 Z"/>
</g>
<g fill="None" fill-opacity="0.0" stroke="#000000" stroke-opacity="0.00" stroke-width="0.3"><path d="
M 0.00 20.00 
L 5.00 20.00
C 3.51 18.03 1.81 16.66 0.00 15.00
L 0.00 20.00 Z"/>
</g>
<g fill="None" fill-opacity="0.0" stroke="#000000" stroke-opacity="0.00" stroke-width="0.3"><path d="
M 16.00 20.00 
L 21.00 20.00
L 21.00 15.00
C 19.03 16.49 17.66 18.19 16.00 20.00 Z"/>
</g>
<g fill="None" fill-opacity="0.0" stroke="#1CA8C3" stroke-opacity="1.00" stroke-width="0.3"><path d="
M 5.00 17.00 
C 4.18 16.18 5.74 17.74 5.00 17.00 Z"/>
</g>
<g fill="None" fill-opacity="0.0" stroke="#3399CC" stroke-opacity="0.02" stroke-width="0.3"><path d="
M 13.00 18.00 
C 13.35 17.94 13.73 17.15 14.00 17.00
C 13.66 17.15 12.92 17.92 13.00 18.00 Z"/>
</g>
<g fill="#000000" fill-opacity="0.00" stroke="None">
<path d="
M 0.00 5.00 
C 1.93 3.74 3.91 2.00 5.00 0.00
L 0.00 0.00
L 0.00 5.00 Z"/>
</g>
<g fill="#1CA8C2" fill-opacity="0.56" stroke="None">
<path d="
M 0.00 5.00 
L 0.00 7.00
C 1.20 6.15 1.14 6.20 2.00 7.00
C 2.25 6.75 3.00 7.00 3.00 7.00
C 3.40 6.37 3.63 5.60 4.00 5.00
C 4.20 4.69 4.70 4.21 5.00 4.00
C 8.56 1.55 12.04 1.99 16.00 3.00
C 14.88 6.33 11.61 8.56 11.00 12.00
C 8.22 11.19 8.42 7.05 5.00 8.00
C 4.24 10.19 6.30 11.32 7.00 13.00
C 7.28 13.24 7.88 13.65 8.00 14.00
C 8.36 15.01 9.33 15.76 9.00 17.00
C 14.19 15.99 14.78 9.09 18.00 6.00
C 19.49 4.85 18.16 7.96 18.00 7.00
C 20.44 10.80 17.57 15.46 14.00 17.00
C 13.73 17.15 13.35 17.94 13.00 18.00
C 8.93 19.05 4.49 16.45 3.00 13.00
C 2.93 12.82 2.00 13.00 2.00 13.00
C 1.90 14.09 0.72 13.81 0.00 14.00
L 0.00 15.00
C 1.81 16.66 3.51 18.03 5.00 20.00
L 16.00 20.00
C 17.66 18.19 19.03 16.49 21.00 15.00
L 21.00 6.00
C 20.67 5.84 20.15 5.34 20.00 5.00
C 19.12 3.02 18.97 2.65 17.00 2.00
C 16.20 3.81 15.57 0.63 15.00 0.00
L 5.00 0.00
C 3.91 2.00 1.93 3.74 0.00 5.00
M 17.00 4.00 
C 17.74 4.74 16.18 3.18 17.00 4.00
M 15.00 9.00 
C 15.74 9.74 14.18 8.18 15.00 9.00
M 5.00 17.00 
C 5.74 17.74 4.18 16.18 5.00 17.00 Z"/>
</g>
<g fill="#1AAAC4" fill-opacity="0.05" stroke="None">
<path d="
M 17.00 2.00 
C 16.85 1.95 17.00 1.00 17.00 1.00
C 16.88 0.74 16.17 0.34 16.00 0.00
L 15.00 0.00
C 15.57 0.63 16.20 3.81 17.00 2.00 Z"/>
</g>
<g fill="#00FFFF" fill-opacity="0.00" stroke="None">
<path d="
M 17.00 1.00 
C 17.00 0.50 17.00 0.00 17.00 0.00
L 16.00 0.00
C 16.17 0.34 16.88 0.74 17.00 1.00 Z"/>
</g>
<g fill="#000000" fill-opacity="0.00" stroke="None">
<path d="
M 17.00 1.00 
C 17.00 1.00 16.85 1.95 17.00 2.00
C 18.97 2.65 19.12 3.02 20.00 5.00
C 20.07 5.18 21.00 5.00 21.00 5.00
L 21.00 0.00
L 17.00 0.00
C 17.00 0.00 17.00 0.50 17.00 1.00 Z"/>
</g>
<g fill="#000000" fill-opacity="0.00" stroke="None">
<path d="
M 5.00 4.00 
C 4.74 4.23 4.35 4.87 4.00 5.00
C 3.63 5.60 3.40 6.37 3.00 7.00
C 2.80 7.31 2.13 7.73 2.00 8.00
C 2.00 9.33 2.00 10.67 2.00 12.00
C 2.13 12.27 2.85 12.66 3.00 13.00
C 4.49 16.45 8.93 19.05 13.00 18.00
C 12.92 17.92 13.66 17.15 14.00 17.00
C 17.57 15.46 20.44 10.80 18.00 7.00
C 17.77 6.65 18.00 6.00 18.00 6.00
C 14.78 9.09 14.19 15.99 9.00 17.00
C 9.33 15.76 8.36 15.01 8.00 14.00
C 7.88 13.74 7.25 13.26 7.00 13.00
C 6.30 11.32 4.24 10.19 5.00 8.00
C 8.42 7.05 8.22 11.19 11.00 12.00
C 11.61 8.56 14.88 6.33 16.00 3.00
C 12.04 1.99 8.56 1.55 5.00 4.00 Z"/>
</g>
<g fill="#00FFFF" fill-opacity="0.00" stroke="None">
<path d="
M 4.00 5.00 
C 4.35 4.87 4.74 4.23 5.00 4.00
C 4.70 4.21 4.20 4.69 4.00 5.00 Z"/>
</g>
<g fill="#1CA8C3" fill-opacity="0.87" stroke="None">
<path d="
M 17.00 4.00 
C 16.18 3.18 17.74 4.74 17.00 4.00 Z"/>
</g>
<g fill="#18AAC2" fill-opacity="0.08" stroke="None">
<path d="
M 21.00 6.00 
L 21.00 5.00
C 21.00 5.00 20.07 5.18 20.00 5.00
C 20.15 5.34 20.67 5.84 21.00 6.00 Z"/>
</g>
<g fill="#1BA8C2" fill-opacity="0.77" stroke="None">
<path d="
M 0.00 7.00 
L 0.00 14.00
C 0.72 13.81 1.90 14.09 2.00 13.00
C 1.75 12.75 2.00 12.00 2.00 12.00
C 2.00 10.67 2.00 9.33 2.00 8.00
C 2.00 7.50 2.00 7.00 2.00 7.00
C 1.14 6.20 1.20 6.15 0.00 7.00 Z"/>
</g>
<g fill="#1AA9C3" fill-opacity="0.27" stroke="None">
<path d="
M 18.00 7.00 
C 18.16 7.96 19.49 4.85 18.00 6.00
C 18.00 6.00 17.77 6.65 18.00 7.00 Z"/>
</g>
<g fill="#1CAAC6" fill-opacity="0.07" stroke="None">
<path d="
M 2.00 8.00 
C 2.13 7.73 2.80 7.31 3.00 7.00
C 3.00 7.00 2.25 6.75 2.00 7.00
C 2.00 7.00 2.00 7.50 2.00 8.00 Z"/>
</g>
<g fill="#1CA8C4" fill-opacity="0.81" stroke="None">
<path d="
M 15.00 9.00 
C 14.18 8.18 15.74 9.74 15.00 9.00 Z"/>
</g>
<g fill="#20AFBF" fill-opacity="0.06" stroke="None">
<path d="
M 2.00 13.00 
C 2.00 13.00 2.93 12.82 3.00 13.00
C 2.85 12.66 2.13 12.27 2.00 12.00
C 2.00 12.00 1.75 12.75 2.00 13.00 Z"/>
</g>
<g fill="#0080FF" fill-opacity="0.01" stroke="None">
<path d="
M 8.00 14.00 
C 7.88 13.65 7.28 13.24 7.00 13.00
C 7.25 13.26 7.88 13.74 8.00 14.00 Z"/>
</g>
<g fill="#000000" fill-opacity="0.00" stroke="None">
<path d="
M 0.00 20.00 
L 5.00 20.00
C 3.51 18.03 1.81 16.66 0.00 15.00
L 0.00 20.00 Z"/>
</g>
<g fill="#000000" fill-opacity="0.00" stroke="None">
<path d="
M 16.00 20.00 
L 21.00 20.00
L 21.00 15.00
C 19.03 16.49 17.66 18.19 16.00 20.00 Z"/>
</g>
<g fill="#1CA8C3" fill-opacity="1.00" stroke="None">
<path d="
M 5.00 17.00 
C 4.18 16.18 5.74 17.74 5.00 17.00 Z"/>
</g>
<g fill="#3399CC" fill-opacity="0.02" stroke="None">
<path d="
M 13.00 18.00 
C 13.35 17.94 13.73 17.15 14.00 17.00
C 13.66 17.15 12.92 17.92 13.00 18.00 Z"/>
</g>
</svg>